<?xml version="1.0" standalone="no"?>
<!DOCTYPE svg PUBLIC "-//W3C//DTD SVG 20010904//EN"
 "http://www.w3.org/TR/2001/REC-SVG-20010904/DTD/svg10.dtd">
<svg version="1.0" xmlns="http://www.w3.org/2000/svg"
 width="128.000000pt" height="125.000000pt" viewBox="0 0 128.000000 125.000000"
 preserveAspectRatio="xMidYMid meet">
<g transform="translate(0.000000,125.000000) scale(0.100000,-0.100000)"
fill="#000000" stroke="none">
<path d="M345 1117 c-124 -47 -223 -175 -245 -320 -11 -71 -8 -106 16 -195 14
-49 13 -59 -5 -127 -35 -127 0 -165 118 -127 61 20 70 21 107 8 21 -8 50 -17
64 -20 18 -4 32 -21 49 -56 74 -153 280 -237 432 -177 45 18 47 18 118 -3 118
-36 151 5 113 140 -18 63 -18 66 1 125 70 221 -66 470 -283 519 -17 3 -33 20
-49 51 -88 167 -272 244 -436 182z m248 -77 c236 -119 230 -499 -8 -615 -70
-34 -161 -37 -230 -6 l-48 21 -67 -20 c-93 -28 -91 -30 -68 51 11 40 17 83 14
98 -3 14 -12 57 -21 94 -61 267 197 494 428 377z m307 -250 c135 -69 204 -261
150 -420 l-20 -60 21 -76 c11 -41 18 -78 15 -81 -3 -3 -37 4 -76 17 -69 22
-70 22 -107 4 -53 -26 -194 -26 -242 0 -44 24 -119 93 -136 127 -14 27 -14 27
33 39 174 44 286 193 287 382 0 109 -2 107 75 68z"/>
</g>
</svg>
