<?xml version="1.0" standalone="no"?>
<!DOCTYPE svg PUBLIC "-//W3C//DTD SVG 20010904//EN"
 "http://www.w3.org/TR/2001/REC-SVG-20010904/DTD/svg10.dtd">
<svg version="1.0" xmlns="http://www.w3.org/2000/svg"
 width="161.000000pt" height="162.000000pt" viewBox="0 0 161.000000 162.000000"
 preserveAspectRatio="xMidYMid meet">
<g transform="translate(0.000000,162.000000) scale(0.100000,-0.100000)"
fill="#000000" stroke="none">
<path d="M581 1148 c-87 -90 -185 -193 -219 -230 l-62 -67 0 -254 c0 -325 -18
-297 194 -297 113 0 166 4 174 12 8 8 12 59 12 165 l0 153 85 0 85 0 2 -163 3
-162 174 -3 c119 -2 178 1 187 9 11 9 14 63 14 276 l0 265 -97 101 c-325 340
-343 357 -379 357 -9 0 -87 -73 -173 -162z m579 -545 l0 -233 -125 0 -124 0
-3 158 -3 157 -142 3 c-111 2 -143 0 -143 -10 -1 -7 -1 -79 0 -161 l1 -147
-126 0 -125 0 0 231 0 231 197 205 198 205 197 -204 197 -203 1 -232z"/>
</g>
</svg>
