<?xml version="1.0" standalone="no"?>
<!DOCTYPE svg PUBLIC "-//W3C//DTD SVG 20010904//EN"
 "http://www.w3.org/TR/2001/REC-SVG-20010904/DTD/svg10.dtd">
<svg version="1.0" xmlns="http://www.w3.org/2000/svg"
 width="201.000000pt" height="227.000000pt" viewBox="0 0 201.000000 227.000000"
 preserveAspectRatio="xMidYMid meet">
<g transform="translate(0.000000,227.000000) scale(0.100000,-0.100000)"
fill="#000000" stroke="none">
<path d="M933 1522 c-172 -62 -249 -183 -264 -416 -11 -155 -30 -263 -60 -333
-41 -95 -10 -123 136 -123 l112 0 17 -44 c63 -165 298 -156 332 12 l7 32 113
0 c157 0 178 21 134 137 -26 70 -50 209 -50 297 -1 149 -37 253 -122 343 -94
99 -237 137 -355 95z m232 -79 c108 -56 163 -151 176 -301 17 -192 30 -276 55
-350 13 -40 24 -75 24 -77 0 -7 -756 -6 -762 1 -4 3 2 24 12 47 28 64 50 187
59 331 12 203 75 313 208 362 54 20 177 13 228 -13z m-15 -809 c0 -32 -65 -84
-104 -84 -60 0 -126 50 -126 95 0 3 52 5 115 5 99 0 115 -2 115 -16z"/>
</g>
</svg>
