<?xml version="1.0" standalone="no"?>
<!DOCTYPE svg PUBLIC "-//W3C//DTD SVG 20010904//EN"
 "http://www.w3.org/TR/2001/REC-SVG-20010904/DTD/svg10.dtd">
<svg version="1.0" xmlns="http://www.w3.org/2000/svg"
 width="146.000000pt" height="157.000000pt" viewBox="0 0 146.000000 157.000000"
 preserveAspectRatio="xMidYMid meet">
<g transform="translate(0.000000,157.000000) scale(0.100000,-0.100000)"
fill="#000000" stroke="none">
<path d="M306 1280 c-112 -99 -2 -307 126 -239 30 16 104 -60 93 -94 -28 -90
-17 -187 31 -258 l35 -52 -31 -32 c-31 -32 -31 -32 -73 -18 -155 54 -291 -141
-203 -291 122 -208 420 -26 315 192 l-21 43 30 37 c19 23 37 36 48 34 88 -15
130 -13 176 10 l46 24 59 -81 59 -80 -18 -40 c-23 -52 -22 -129 1 -181 62
-136 254 -137 320 -1 80 164 -64 330 -236 272 -18 -6 -30 5 -82 75 l-60 83 22
41 c30 57 30 174 0 231 l-21 40 23 28 c21 23 28 26 50 17 145 -55 246 169 113
250 -112 68 -237 -47 -189 -173 12 -32 -38 -88 -57 -64 -41 49 -178 48 -248
-2 l-46 -32 -34 38 c-21 23 -32 43 -28 53 55 137 -93 263 -200 170z m121 -45
c47 -33 33 -125 -22 -139 -68 -17 -111 68 -64 128 23 29 54 33 86 11z m662
-11 c49 -63 -13 -159 -79 -124 -65 35 -42 150 30 150 19 0 36 -9 49 -26z
m-260 -223 c111 -79 97 -272 -24 -331 -172 -83 -316 163 -182 309 51 55 145
65 206 22z m-320 -497 c91 -76 41 -234 -74 -234 -77 0 -127 75 -111 165 17 87
119 125 185 69z m674 -38 c66 -27 91 -106 59 -179 -70 -158 -274 -41 -208 118
26 62 88 87 149 61z"/>
</g>
</svg>
