<?xml version="1.0" standalone="no"?>
<!DOCTYPE svg PUBLIC "-//W3C//DTD SVG 20010904//EN"
 "http://www.w3.org/TR/2001/REC-SVG-20010904/DTD/svg10.dtd">
<svg version="1.0" xmlns="http://www.w3.org/2000/svg"
 width="117.000000pt" height="126.000000pt" viewBox="0 0 117.000000 126.000000"
 preserveAspectRatio="xMidYMid meet">
<g transform="translate(0.000000,126.000000) scale(0.100000,-0.100000)"
fill="#000000" stroke="none">
<path d="M501 1134 c-326 -87 -473 -515 -281 -813 274 -424 870 -217 870 302
0 341 -289 592 -589 511z m279 -90 c241 -115 329 -451 179 -688 l-31 -49 -47
51 c-25 28 -67 64 -93 80 l-48 29 22 19 c114 102 78 323 -65 395 -211 108
-408 -226 -232 -391 l25 -23 -49 -28 c-27 -16 -69 -51 -94 -79 l-44 -52 -22
31 c-176 247 -71 622 201 721 85 31 214 24 298 -16z m-83 -235 c75 -46 96
-179 39 -253 -96 -127 -276 -59 -276 104 0 140 123 218 237 149z m56 -423 c76
-45 132 -114 110 -138 -71 -79 -266 -112 -382 -65 -64 26 -131 66 -131 80 0
13 81 96 116 118 80 49 207 51 287 5z"/>
</g>
</svg>
