<svg version="1.0" xmlns="http://www.w3.org/2000/svg" width="288.000000pt" height="255.000000pt" viewBox="0 0 288.000000 255.000000" preserveAspectRatio="xMidYMid meet" style="width: 716.54px; height: auto;"> <g transform="translate(0.000000,255.000000) scale(0.100000,-0.100000)" fill="#000000" stroke="none" class=""> <path d="M1390 2010 c-8 -5 -24 -10 -34 -10 -29 0 -116 -58 -163 -109 -64 -70 -93 -134 -93 -208 0 -80 -12 -87 -119 -79 -59 5 -83 3 -105 -9 -15 -8 -35 -15 -43 -15 -24 0 -90 -79 -102 -123 -14 -48 -10 -931 3 -982 12 -42 73 -104 126 -127 43 -18 70 -19 610 -19 448 0 573 3 603 14 36 13 107 68 107 83 0 4 8 16 18 27 16 18 17 57 17 521 l0 501 -25 37 c-15 22 -47 48 -79 65 -50 26 -62 28 -149 25 -55 -2 -99 1 -106 8 -9 6 -11 27 -8 60 3 35 0 57 -12 74 -9 14 -16 34 -16 44 0 11 -7 25 -15 32 -8 7 -15 17 -15 23 0 12 -68 88 -91 102 -62 36 -89 49 -124 57 -60 15 -168 20 -185 8z m190 -145 c7 -8 18 -15 24 -15 14 -1 66 -46 66 -59 0 -5 6 -16 13 -23 18 -18 47 -99 47 -130 0 -17 -7 -29 -17 -32 -15 -4 -470 -2 -496 3 -8 1 2 81 13 96 4 6 10 22 13 36 7 29 65 92 111 120 41 25 206 28 226 4z m440 -435 c74 -74 70 -43 70 -502 -1 -403 -1 -414 -21 -438 l-21 -25 -573 0 -573 0 -21 25 c-20 24 -20 35 -21 446 0 363 2 423 15 434 8 7 15 21 15 31 0 17 39 45 85 61 11 3 243 6 515 5 l495 -2 35 -35z" class=""></path> <path d="M1417 1217 c-16 -19 -17 -33 -12 -98 8 -95 4 -100 -87 -87 -62 8 -70 7 -98 -13 -39 -29 -41 -74 -4 -108 24 -23 28 -24 100 -15 47 6 78 6 84 0 5 -5 7 -40 3 -83 -5 -68 -4 -76 17 -98 32 -34 84 -34 106 0 13 20 15 39 9 99 -8 89 -1 97 78 84 67 -10 102 -3 127 29 27 34 25 45 -9 82 -28 30 -29 31 -107 24 -99 -7 -106 -1 -92 77 8 44 7 62 -5 93 -15 34 -19 37 -54 37 -27 0 -43 -7 -56 -23z m72 -283 c-8 -10 -16 -11 -30 -3 -26 14 -16 28 16 21 20 -3 23 -7 14 -18z"></path>     </g> </svg>