<?xml version="1.0" standalone="no"?>
<!DOCTYPE svg PUBLIC "-//W3C//DTD SVG 20010904//EN"
 "http://www.w3.org/TR/2001/REC-SVG-20010904/DTD/svg10.dtd">
<svg version="1.0" xmlns="http://www.w3.org/2000/svg"
 width="271.000000pt" height="235.000000pt" viewBox="0 0 271.000000 235.000000"
 preserveAspectRatio="xMidYMid meet">
<g transform="translate(0.000000,235.000000) scale(0.100000,-0.100000)"
fill="#000000" stroke="none">
<path d="M648 2012 c-76 -2 -89 -5 -99 -23 -18 -35 -6 -762 14 -822 60 -177
207 -319 353 -343 l41 -6 6 -87 c36 -505 575 -741 912 -398 132 135 175 260
175 519 l0 156 33 11 c113 38 168 207 106 326 -49 97 -155 138 -254 101 -170
-66 -181 -336 -17 -416 l53 -25 -6 -155 c-9 -236 -37 -323 -142 -439 -275
-305 -773 -83 -773 345 l0 61 41 7 c149 24 297 168 355 346 21 63 32 787 13
822 -8 16 -24 18 -118 18 -123 0 -142 -9 -125 -58 9 -26 13 -27 87 -30 l77 -3
0 -319 c0 -348 -5 -392 -53 -483 -140 -266 -489 -275 -640 -16 -52 88 -57 135
-57 491 l0 328 75 0 c71 0 76 1 87 26 25 55 -10 71 -144 66z m1408 -658 c105
-50 95 -222 -15 -255 -142 -42 -217 173 -88 251 39 24 59 25 103 4z"/>
</g>
</svg>
