<svg version="1.0" xmlns="http://www.w3.org/2000/svg" width="225.000000pt" height="228.000000pt" viewBox="0 0 225.000000 228.000000" preserveAspectRatio="xMidYMid meet" style="width: 161.81px; height: auto;"> <g transform="translate(0.000000,228.000000) scale(0.100000,-0.100000)" fill="#000000" stroke="none" class=""> <path d="M435 1948 c-46 -23 -104 -91 -122 -145 -18 -50 -22 -1338 -4 -1370 6 -12 11 -32 11 -45 1 -27 20 -51 80 -98 l44 -35 621 -5 c349 -3 633 -1 650 4 91 27 159 93 169 164 9 70 7 1342 -3 1385 -14 59 -68 122 -126 146 -49 21 -63 21 -665 20 -598 0 -616 -1 -655 -21z m1304 -133 l30 -35 -2 -672 c-2 -656 -3 -674 -22 -700 -11 -15 -33 -30 -50 -33 -16 -3 -296 -5 -622 -3 l-592 3 -21 22 c-11 12 -25 34 -30 47 -13 35 -13 1276 0 1326 7 26 21 45 43 59 31 20 42 21 633 21 l602 0 31 -35z" class=""></path> <path d="M910 1523 c-39 -14 -40 -25 -40 -419 l0 -383 26 -20 c34 -27 50 -26 79 4 23 23 25 31 24 127 0 57 -4 125 -8 151 -10 61 -4 64 114 63 l90 -1 0 -155 c0 -162 7 -193 47 -206 26 -8 56 4 69 27 11 21 15 747 3 786 -6 23 -44 37 -75 28 -37 -12 -44 -43 -44 -205 l0 -155 -94 -3 c-52 -1 -98 1 -102 5 -4 4 -4 71 0 148 8 149 2 183 -38 205 -21 11 -28 11 -51 3z"></path>  </g> </svg>