<?xml version="1.0" standalone="no"?>
<!DOCTYPE svg PUBLIC "-//W3C//DTD SVG 20010904//EN"
 "http://www.w3.org/TR/2001/REC-SVG-20010904/DTD/svg10.dtd">
<svg version="1.0" xmlns="http://www.w3.org/2000/svg"
 width="73.000000pt" height="78.000000pt" viewBox="0 0 73.000000 78.000000"
 preserveAspectRatio="xMidYMid meet">
<g transform="translate(0.000000,78.000000) scale(0.100000,-0.100000)"
fill="#000000" stroke="none">
<path d="M266 524 c-64 -69 -116 -131 -116 -137 1 -21 127 -148 141 -141 8 3
43 39 79 80 36 41 70 74 76 74 5 0 23 -13 39 -30 39 -40 47 -128 16 -177 -39
-62 -58 -68 -238 -71 l-163 -4 0 -24 0 -24 240 0 240 0 0 25 c0 20 -5 25 -25
25 -30 0 -30 1 -6 48 43 85 31 184 -30 248 l-30 31 18 31 c14 25 16 35 6 50
-8 14 -8 23 -1 30 8 8 1 23 -21 51 -35 44 -41 47 -59 29 -9 -9 -15 -9 -24 0
-7 7 -15 12 -19 12 -4 0 -59 -57 -123 -126z m161 18 l31 -38 -87 -97 -86 -97
-33 36 c-18 19 -32 39 -30 44 4 13 162 190 169 190 3 0 19 -17 36 -38z"/>
<path d="M116 311 c-17 -19 -17 -21 22 -62 35 -38 42 -41 56 -30 24 20 20 33
-22 74 -38 37 -39 37 -56 18z"/>
</g>
</svg>
