<?xml version="1.0" standalone="no"?>
<!DOCTYPE svg PUBLIC "-//W3C//DTD SVG 20010904//EN"
 "http://www.w3.org/TR/2001/REC-SVG-20010904/DTD/svg10.dtd">
<svg version="1.0" xmlns="http://www.w3.org/2000/svg"
 width="172.000000pt" height="157.000000pt" viewBox="0 0 172.000000 157.000000"
 preserveAspectRatio="xMidYMid meet">
<g transform="translate(0.000000,157.000000) scale(0.100000,-0.100000)"
fill="#currentColor" stroke="none">
<path d="M641 1279 c-17 -17 -31 -35 -31 -40 0 -5 -28 -9 -62 -9 -69 0 -117
-22 -139 -62 -18 -32 -26 -845 -10 -905 7 -25 24 -52 42 -67 29 -25 36 -26
150 -26 111 0 119 1 119 19 0 11 3 26 6 35 5 14 -8 16 -109 16 -92 0 -119 3
-131 16 -14 14 -16 68 -16 444 0 491 -6 460 89 460 52 0 59 -3 69 -25 23 -51
65 -65 192 -65 128 0 154 8 185 57 19 30 24 32 81 33 34 0 65 -5 72 -12 8 -8
12 -64 12 -186 l0 -174 23 6 c12 3 28 6 35 6 19 0 17 309 -2 355 -21 51 -68
75 -143 75 -53 0 -63 3 -68 20 -3 11 -18 29 -32 40 -23 18 -40 20 -164 20
l-137 0 -31 -31z m310 -65 c7 -20 6 -32 -6 -50 -15 -23 -21 -24 -126 -24 -124
0 -149 8 -149 48 0 47 14 52 147 52 l123 0 11 -26z"/>
<path d="M583 864 c-3 -9 -2 -24 4 -33 9 -14 39 -16 209 -19 109 -1 209 0 222
3 17 4 22 13 22 35 l0 30 -225 0 c-200 0 -226 -2 -232 -16z"/>
<path d="M1174 722 c-31 -25 -370 -405 -381 -428 -18 -33 -35 -122 -28 -143
11 -34 36 -41 92 -27 28 8 57 17 65 22 21 12 380 401 395 428 7 11 12 38 13
60 0 79 -99 135 -156 88z"/>
<path d="M583 664 c-14 -37 10 -49 108 -52 108 -3 134 1 143 24 14 36 -12 44
-131 44 -96 0 -115 -3 -120 -16z"/>
<path d="M583 464 c-3 -9 -2 -24 4 -33 8 -13 32 -17 119 -19 l109 -2 28 35 28
35 -141 0 c-121 0 -142 -2 -147 -16z"/>
</g>
</svg>
