<?xml version="1.0" standalone="no"?>
<!DOCTYPE svg PUBLIC "-//W3C//DTD SVG 20010904//EN"
 "http://www.w3.org/TR/2001/REC-SVG-20010904/DTD/svg10.dtd">
<svg version="1.0" xmlns="http://www.w3.org/2000/svg"
 width="147.000000pt" height="157.000000pt" viewBox="0 0 147.000000 157.000000"
 preserveAspectRatio="xMidYMid meet">
<g transform="translate(0.000000,157.000000) scale(0.100000,-0.100000)"
fill="#000000" stroke="none">
<path d="M449 1377 c-304 -86 -402 -495 -177 -734 87 -91 133 -107 328 -113
l165 -5 0 -50 0 -50 -60 -5 c-52 -4 -60 -8 -63 -27 -4 -29 28 -45 81 -41 41 3
42 2 45 -29 l3 -32 -93 -3 c-89 -3 -93 -4 -96 -27 -2 -13 1 -28 6 -33 7 -7
293 -13 409 -8 18 0 26 39 13 55 -9 11 -35 15 -96 15 l-84 0 0 35 c0 34 1 35
38 33 47 -1 78 15 102 55 51 82 -14 187 -115 187 -23 0 -25 3 -25 49 l0 49 46
11 c159 40 304 203 308 346 l1 50 -395 0 -395 0 -3 -28 c-8 -70 72 -224 148
-286 47 -38 129 -77 181 -86 36 -7 48 -30 49 -92 0 -21 -273 -18 -334 3 -147
50 -249 241 -217 405 52 263 314 377 515 224 70 -53 105 -3 40 55 -83 72 -223
106 -325 77z m660 -366 c-86 -245 -372 -318 -550 -141 -37 37 -99 140 -99 164
0 3 148 6 329 6 l330 0 -10 -29z m-208 -491 c49 -27 16 -100 -45 -100 -25 0
-26 3 -26 55 0 59 20 72 71 45z"/>
</g>
</svg>
