<?xml version="1.0" standalone="no"?>
<!DOCTYPE svg PUBLIC "-//W3C//DTD SVG 20010904//EN"
 "http://www.w3.org/TR/2001/REC-SVG-20010904/DTD/svg10.dtd">
<svg version="1.0" xmlns="http://www.w3.org/2000/svg"
 width="522.000000pt" height="421.000000pt" viewBox="0 0 522.000000 421.000000"
 preserveAspectRatio="xMidYMid meet">
<g transform="translate(0.000000,421.000000) scale(0.100000,-0.100000)"
fill="#000000" stroke="none">
<path d="M1330 3649 c-252 -23 -504 -149 -686 -342 -153 -163 -249 -358 -288
-586 -31 -180 -16 -259 54 -293 46 -22 98 -10 133 31 22 26 25 41 30 148 11
251 121 469 320 632 111 92 237 151 401 187 88 19 283 16 386 -6 260 -55 503
-246 604 -474 26 -58 70 -96 112 -96 43 0 86 43 133 133 111 212 315 370 551
427 152 36 347 37 489 0 176 -44 387 -192 496 -345 246 -347 208 -803 -108
-1274 -110 -165 -167 -232 -371 -437 -312 -312 -587 -527 -1030 -802 l-159
-99 -81 49 c-458 280 -782 524 -1071 809 -71 70 -146 136 -165 147 -32 17 -38
18 -79 4 -36 -12 -47 -22 -63 -59 -33 -74 -18 -96 202 -301 165 -155 279 -250
455 -381 61 -45 115 -85 120 -90 58 -45 347 -233 458 -298 232 -135 216 -134
410 -20 767 451 1377 1006 1649 1502 98 180 132 260 178 430 18 68 40 237 40
315 0 286 -127 582 -337 780 -109 103 -232 183 -388 251 -62 27 -226 59 -320
63 -197 7 -315 -8 -495 -65 -147 -47 -391 -224 -472 -342 -22 -33 -43 -55 -47
-50 -4 4 -26 33 -49 64 -110 147 -295 271 -502 339 -149 48 -330 66 -510 49z
m606 -190 c9 -15 -23 -10 -35 5 -10 12 -8 13 9 9 11 -3 23 -9 26 -14z m214
-160 c-7 -11 -14 -19 -16 -16 -7 7 7 37 17 37 6 0 5 -9 -1 -21z m490 -19 c-14
-10 -26 -17 -28 -15 -7 7 23 34 38 34 10 1 6 -6 -10 -19z m-1970 -93 c0 -7
-12 -13 -26 -13 -24 -2 -24 -1 -8 17 17 19 34 17 34 -4z m1637 -64 c0 -27 -2
-39 -4 -28 -3 11 -11 27 -19 36 -11 12 -11 18 -2 27 21 21 25 14 25 -35z m181
-3 c3 -30 2 -32 -12 -21 -19 16 -22 65 -3 59 6 -3 13 -20 15 -38z m-68 -39 c0
-10 -6 -24 -13 -30 -11 -8 -19 -5 -38 16 -18 19 -20 25 -7 20 10 -3 20 -2 23
3 11 17 35 11 35 -9z m1710 -1276 c0 -8 -4 -15 -10 -15 -5 0 -10 7 -10 15 0 8
5 15 10 15 6 0 10 -7 10 -15z m-505 -536 c-5 -15 -4 -19 4 -15 6 4 11 2 11 -3
0 -14 -27 -14 -35 -1 -4 6 -1 17 5 25 17 21 22 19 15 -6z m-2462 -9 c8 0 7 -4
-1 -12 -9 -9 -16 -8 -30 6 -16 18 -16 19 1 12 10 -3 24 -6 30 -6z m137 -135
c7 -8 8 -15 2 -15 -5 0 -15 7 -22 15 -7 8 -8 15 -2 15 5 0 15 -7 22 -15z m630
-495 c0 -5 -7 -10 -15 -10 -8 0 -15 5 -15 10 0 6 7 10 15 10 8 0 15 -4 15 -10z
m760 -151 c0 -5 -7 -9 -15 -9 -15 0 -20 12 -9 23 8 8 24 -1 24 -14z m-243
-116 c-9 -9 -17 -11 -21 -5 -3 6 2 18 11 28 12 12 18 13 21 4 2 -6 -2 -19 -11
-27z"/>
<path d="M1586 2469 c-15 -13 -86 -112 -159 -219 l-132 -195 -372 -5 -371 -5
-26 -24 c-36 -34 -44 -85 -20 -128 33 -63 31 -63 471 -63 370 0 400 1 428 19
26 16 126 154 209 289 15 24 31 42 36 40 5 -2 109 -151 231 -333 270 -403 289
-429 328 -445 37 -15 92 -6 114 18 8 9 67 96 130 192 64 96 123 185 132 198
16 22 20 22 226 22 235 0 255 5 284 66 19 40 19 58 0 94 -29 56 -49 60 -329
60 l-254 0 -30 -25 c-29 -24 -173 -229 -206 -292 -15 -31 -46 -46 -46 -23 0
14 -450 682 -498 739 -38 45 -105 54 -146 20z m22 -212 c2 -12 -3 -17 -17 -17
-12 0 -21 6 -21 13 0 31 32 34 38 4z m96 17 c12 -5 13 -10 5 -26 -8 -15 -14
-17 -24 -8 -10 8 -15 8 -20 0 -7 -12 -45 15 -45 32 0 9 61 11 84 2z m-124 -58
c0 -21 -21 -31 -30 -15 -5 7 -6 17 -4 21 9 14 34 9 34 -6z m-164 -171 c4 -8 3
-23 0 -32 -6 -14 -8 -14 -22 5 -15 22 -12 42 7 42 5 0 12 -7 15 -15z m-36 -50
c0 -16 -6 -25 -15 -25 -16 0 -19 9 -9 34 9 25 24 19 24 -9z m970 -356 c0 -16
-17 -36 -24 -28 -2 2 -6 21 -9 43 -6 37 -6 38 13 21 11 -10 20 -26 20 -36z
m-190 31 c0 -5 -7 -10 -15 -10 -8 0 -15 5 -15 10 0 6 7 10 15 10 8 0 15 -4 15
-10z m6 -56 c-4 -12 -10 -14 -17 -7 -5 5 -7 17 -3 27 4 12 10 14 17 7 5 -5 7
-17 3 -27z"/>
</g>
</svg>
