<?xml version="1.0" standalone="no"?>
<!DOCTYPE svg PUBLIC "-//W3C//DTD SVG 20010904//EN"
 "http://www.w3.org/TR/2001/REC-SVG-20010904/DTD/svg10.dtd">
<svg version="1.0" xmlns="http://www.w3.org/2000/svg"
 width="468.000000pt" height="324.000000pt" viewBox="0 0 468.000000 324.000000"
 preserveAspectRatio="xMidYMid meet">
<g transform="translate(0.000000,324.000000) scale(0.040000,-0.040000)"
fill="#000000" stroke="none">
<path d="M3638 7628 c-97 -9 -200 -30 -230 -47 -30 -17 -72 -31 -93 -31 -36 0
-347 -143 -451 -207 -105 -66 -130 -86 -302 -258 -170 -168 -487 -607 -487
-673 0 -17 -17 -45 -37 -62 -21 -17 -38 -57 -38 -90 0 -32 -15 -95 -34 -140
-132 -314 -178 -1248 -81 -1653 22 -93 40 -206 41 -250 0 -44 17 -108 37 -142
19 -34 36 -98 36 -141 1 -43 18 -111 38 -150 21 -39 38 -95 38 -125 0 -29 17
-93 38 -143 20 -49 37 -117 37 -150 0 -33 17 -74 38 -91 20 -17 37 -63 37
-102 0 -38 10 -76 23 -84 13 -8 31 -51 41 -95 18 -84 66 -206 127 -323 19 -36
34 -83 34 -104 0 -21 16 -70 35 -109 20 -39 53 -110 73 -158 124 -288 536
-1126 745 -1512 81 -152 165 -309 186 -350 101 -196 194 -313 250 -313 16 0
44 -17 61 -37 17 -21 58 -38 91 -38 32 0 59 -11 59 -25 0 -15 107 -25 271 -25
248 0 283 6 422 74 293 142 429 390 432 789 0 123 17 292 37 375 20 82 37 187
37 233 2 139 175 506 288 610 120 111 371 102 494 -17 195 -189 343 -693 344
-1166 0 -241 45 -442 116 -525 19 -22 34 -50 34 -64 0 -43 159 -173 296 -242
120 -60 160 -67 405 -67 154 0 278 11 286 25 9 14 37 25 63 25 99 0 278 173
375 363 14 27 64 117 112 200 47 82 183 341 301 575 223 440 245 483 287 556
14 24 32 60 39 81 8 21 30 71 48 113 19 41 53 120 76 175 22 55 56 133 74 175
133 300 158 361 219 525 70 188 98 275 119 356 11 46 31 96 44 113 14 17 30
64 38 106 7 41 25 111 40 156 15 44 40 118 56 162 15 45 36 134 48 199 11 64
33 139 47 167 15 27 27 94 27 148 0 54 16 145 36 201 80 226 72 1136 -13 1529
-27 127 -43 172 -120 350 -15 34 -39 91 -54 125 -36 86 -53 112 -274 437 -21
30 -54 71 -75 92 -21 21 -71 76 -113 123 -90 102 -271 248 -308 248 -15 0 -36
14 -47 31 -11 17 -59 49 -107 71 -421 190 -494 206 -925 206 -420 0 -564 -31
-908 -199 -39 -19 -81 -34 -93 -34 -64 0 -330 -208 -570 -445 -87 -87 -168
-154 -179 -150 -12 4 -103 86 -204 183 -290 276 -465 390 -808 526 -273 108
-648 149 -1025 114z m725 -343 c333 -108 580 -245 849 -473 l234 -198 -54 -51
c-73 -68 -347 -201 -513 -248 -126 -37 -139 -36 -231 11 -54 28 -98 61 -98 75
0 43 -161 24 -222 -27 -184 -153 128 -418 464 -393 212 16 393 87 663 262 178
116 218 147 526 420 383 336 774 587 917 587 25 0 88 17 139 39 117 49 727 40
863 -13 48 -18 99 -37 113 -42 13 -5 44 -20 68 -34 71 -41 125 -69 234 -124
154 -78 437 -389 598 -655 94 -158 212 -429 212 -490 0 -28 17 -98 38 -156 44
-127 53 -1009 11 -1150 -15 -48 -36 -161 -48 -250 -12 -89 -35 -213 -52 -275
-16 -62 -46 -180 -66 -262 -21 -83 -50 -179 -64 -213 -14 -34 -35 -102 -45
-150 -11 -48 -44 -149 -74 -225 -30 -76 -63 -171 -73 -213 -11 -41 -31 -97
-46 -125 -14 -27 -62 -139 -105 -249 -44 -110 -96 -232 -115 -271 -20 -39 -36
-86 -36 -103 0 -18 -17 -47 -37 -64 -21 -17 -38 -47 -38 -65 0 -32 -125 -324
-175 -410 -12 -21 -90 -172 -174 -337 -181 -359 -265 -512 -300 -547 -14 -14
-26 -40 -26 -57 0 -69 -253 -450 -328 -494 -127 -76 -384 -68 -509 14 -214
139 -254 233 -276 646 -23 425 -96 770 -216 1020 -58 121 -285 380 -333 380
-18 0 -45 15 -60 34 -37 44 -266 71 -440 50 -151 -17 -380 -175 -466 -321 -81
-138 -147 -278 -147 -311 0 -17 -16 -62 -35 -98 -51 -99 -112 -480 -125 -792
-15 -330 -50 -426 -203 -554 -276 -231 -602 -151 -786 193 -133 247 -156 289
-202 362 -25 41 -70 125 -98 187 -28 62 -61 129 -74 150 -14 21 -48 88 -78
150 -29 62 -62 129 -74 150 -64 111 -200 395 -200 418 0 14 -17 40 -37 57 -21
17 -38 62 -38 100 0 38 -17 83 -37 100 -21 17 -38 47 -38 66 0 31 -95 253
-190 442 -19 39 -35 86 -35 104 0 19 -16 66 -35 105 -73 147 -115 262 -116
315 0 31 -17 77 -37 104 -20 27 -37 75 -37 108 0 33 -13 84 -29 113 -31 58
-54 139 -109 381 -19 82 -46 195 -59 250 -100 399 -137 1275 -65 1512 100 331
124 396 196 550 170 361 661 872 841 876 20 0 59 17 86 37 27 20 72 37 100 38
28 0 80 17 114 37 93 52 671 51 838 -3z"/>
</g>
</svg>
