<svg version="1.0" xmlns="http://www.w3.org/2000/svg" width="381.000000pt" height="306.000000pt" viewBox="0 0 381.000000 306.000000" preserveAspectRatio="xMidYMid meet" style="width: 287.804px; height: auto;"> <g transform="translate(0.000000,306.000000) scale(0.040000,-0.040000)" fill="#000000" stroke="none" class=""> <path d="M3638 7426 c-152 -25 -309 -57 -350 -71 -42 -14 -137 -44 -213 -68 -175 -54 -638 -274 -742 -352 -44 -33 -87 -60 -97 -60 -64 0 -599 -494 -796 -736 -96 -119 -265 -360 -265 -379 0 -6 -34 -57 -75 -114 -41 -57 -75 -118 -75 -135 0 -18 -16 -64 -35 -103 -20 -39 -55 -115 -79 -170 -24 -55 -59 -130 -77 -167 -19 -36 -34 -100 -34 -142 0 -41 -16 -107 -35 -146 -100 -199 -155 -1204 -79 -1427 21 -63 39 -161 40 -217 0 -56 17 -130 36 -164 20 -34 37 -87 37 -118 1 -30 19 -98 41 -150 22 -52 55 -128 72 -169 249 -599 656 -1128 1163 -1511 202 -153 436 -302 474 -302 13 0 81 -34 151 -75 70 -41 148 -75 173 -75 25 0 60 -17 77 -37 17 -21 61 -38 97 -39 36 0 87 -17 114 -37 27 -20 79 -37 116 -37 37 0 107 -17 157 -38 49 -20 149 -37 222 -37 72 0 171 -12 219 -26 188 -56 897 -15 1150 65 62 20 137 36 168 36 53 0 173 45 311 116 36 19 83 34 104 34 99 0 710 359 905 532 355 314 684 701 812 956 14 27 48 83 75 125 27 41 56 91 65 112 30 74 92 214 126 283 19 39 34 96 34 127 0 30 17 77 37 104 20 27 37 78 37 114 1 36 18 106 39 156 20 49 37 130 37 180 0 50 19 193 41 317 37 198 38 263 10 516 -54 494 -64 564 -88 602 -12 20 -30 82 -40 138 -20 113 -62 241 -113 346 -19 39 -35 91 -35 116 0 25 -17 59 -37 76 -21 17 -38 51 -38 75 0 24 -17 58 -37 75 -21 17 -38 44 -38 59 0 16 -59 118 -131 227 -72 109 -143 216 -156 238 -113 180 -798 826 -876 826 -10 0 -60 34 -112 75 -52 41 -110 75 -129 76 -18 0 -55 17 -82 37 -27 20 -68 37 -91 37 -23 0 -56 17 -73 38 -17 20 -51 37 -75 37 -24 0 -58 17 -75 38 -17 20 -52 37 -77 37 -26 0 -83 16 -128 35 -400 171 -1192 234 -1757 141z m1194 -516 c52 -19 125 -35 162 -36 38 0 97 -17 131 -36 34 -20 89 -37 121 -37 32 -1 89 -17 125 -37 37 -19 83 -42 104 -49 21 -8 54 -25 75 -38 21 -13 54 -30 75 -39 21 -8 60 -29 88 -45 27 -17 111 -66 187 -110 76 -44 177 -116 225 -159 259 -234 494 -480 596 -624 63 -89 121 -168 128 -175 24 -22 142 -252 212 -412 24 -55 59 -132 79 -171 19 -39 35 -95 35 -125 0 -30 17 -87 38 -126 20 -39 37 -101 38 -138 0 -36 17 -133 37 -215 43 -177 47 -582 9 -813 -14 -89 -34 -213 -44 -275 -10 -62 -32 -137 -48 -167 -17 -30 -30 -93 -30 -141 0 -47 -17 -100 -37 -117 -21 -17 -38 -46 -38 -65 0 -19 -34 -96 -75 -172 -41 -77 -75 -149 -75 -162 0 -28 -200 -325 -322 -476 -211 -264 -602 -596 -865 -736 -69 -37 -142 -76 -163 -87 -21 -11 -77 -36 -125 -57 -48 -20 -127 -54 -175 -75 -357 -156 -1139 -241 -1450 -158 -76 21 -183 38 -237 39 -55 0 -129 17 -163 37 -34 19 -86 36 -114 36 -128 2 -694 285 -923 461 -55 43 -117 88 -136 102 -144 102 -598 621 -655 749 -12 28 -44 85 -71 127 -73 114 -151 274 -151 310 0 17 -15 62 -34 98 -56 110 -95 234 -116 370 -11 70 -33 152 -49 182 -45 84 -37 957 11 1112 21 68 38 153 38 189 0 37 17 88 37 115 20 27 37 75 37 107 1 32 17 89 36 125 57 111 190 402 192 422 1 11 49 86 106 166 104 147 161 183 380 239 42 10 102 33 134 51 94 50 333 45 433 -9 129 -70 220 -229 220 -386 0 -139 -29 -199 -185 -385 -171 -202 -243 -544 -155 -731 22 -45 40 -99 40 -118 0 -19 13 -48 28 -63 15 -15 41 -54 56 -85 44 -88 309 -277 425 -302 57 -13 217 -32 356 -43 350 -27 506 -147 574 -439 10 -42 29 -89 42 -106 55 -70 1 -110 -125 -93 -85 11 -149 4 -216 -24 -53 -22 -128 -40 -167 -40 -39 0 -108 -16 -153 -35 -79 -33 -228 -69 -470 -113 -288 -51 -425 -185 -425 -414 0 -247 244 -443 463 -374 55 18 150 45 212 60 62 16 155 39 208 53 52 13 122 41 155 63 56 37 60 36 98 -38 22 -42 46 -130 54 -195 8 -66 29 -170 48 -232 18 -62 48 -161 65 -220 55 -191 198 -273 429 -246 410 47 602 113 1116 382 157 83 612 517 716 684 263 421 311 601 207 769 -106 171 -224 194 -725 142 -147 -15 -196 27 -197 172 0 57 -17 133 -36 167 -20 34 -37 88 -37 119 -2 128 -85 351 -166 444 -83 96 -85 97 -260 96 -186 -2 -272 -47 -328 -171 -12 -28 -36 -70 -53 -94 -25 -35 -23 -67 13 -166 23 -67 43 -145 43 -173 0 -29 13 -83 29 -122 17 -39 44 -127 61 -195 16 -69 49 -199 72 -288 23 -89 47 -202 54 -250 23 -159 129 -256 293 -269 161 -14 167 -22 72 -111 -60 -57 -390 -270 -417 -270 -16 0 -84 229 -102 344 -9 58 -26 111 -37 118 -11 7 -28 69 -37 138 -10 69 -28 131 -40 139 -13 8 -23 55 -24 106 0 51 -17 121 -36 155 -20 34 -37 103 -37 151 -1 49 -18 111 -38 138 -20 27 -37 69 -37 93 -2 93 -199 318 -379 432 -103 65 -312 110 -533 113 -196 4 -248 20 -340 107 -215 203 -220 447 -14 639 36 33 65 71 65 84 0 13 36 69 80 124 78 98 80 108 78 341 -1 194 -12 264 -58 363 -64 141 -298 390 -367 391 -25 0 -67 17 -94 37 -30 23 -105 37 -194 37 -271 0 -175 100 343 357 251 125 492 213 668 244 65 12 133 29 149 40 96 59 1016 55 1177 -6z m566 -3937 l60 -50 -54 -50 c-68 -63 -68 -78 9 -169 67 -80 62 -154 -12 -154 -23 0 -56 28 -71 63 -33 70 -68 80 -89 25 -16 -43 -91 -52 -91 -11 0 14 34 55 75 89 85 72 91 99 36 161 -32 35 -34 55 -12 96 34 65 71 65 149 0z m237 -138 c58 -22 49 -94 -16 -123 -97 -43 -242 57 -177 121 20 21 141 22 193 2z m-1600 -256 c22 -36 -15 -204 -45 -204 -27 0 -115 86 -115 113 0 57 134 134 160 91z m1290 -151 c0 -12 23 -28 52 -36 34 -9 49 -30 44 -59 -13 -63 -76 -69 -141 -12 -69 60 -72 129 -5 129 28 0 50 -10 50 -22z m-1080 -58 c46 -46 35 -140 -20 -170 -35 -19 -50 -52 -50 -113 0 -91 -62 -125 -91 -49 -8 20 -34 37 -58 37 -23 0 -55 27 -70 59 -35 78 2 116 111 116 76 0 83 7 83 75 0 79 42 98 95 45z" class=""></path>  <path d="M5941 4962 c-39 -20 -83 -37 -97 -37 -27 0 -215 -142 -263 -200 -155 -184 -197 -572 -83 -763 166 -277 309 -365 619 -381 277 -14 399 32 556 210 95 108 202 370 202 495 0 176 -208 524 -355 594 -275 131 -440 155 -579 82z m44 -665 c12 -69 7 -95 -22 -106 -31 -12 -38 9 -38 115 0 142 34 137 60 -9z m258 44 c69 -73 53 -91 -85 -91 -122 0 -124 3 -68 88 50 77 82 77 153 3z" class=""></path> </g> </svg>