<svg version="1.0" xmlns="http://www.w3.org/2000/svg" width="260.000000pt" height="240.000000pt" viewBox="0 0 260.000000 240.000000" preserveAspectRatio="xMidYMid meet" style="width: 260px; height: auto;"> <g transform="translate(0.000000,240.000000) scale(0.100000,-0.100000)" fill="#000000" stroke="none" class="">  <path d="M469 2244 c-86 -19 -156 -80 -190 -164 -12 -29 -14 -173 -14 -855 0 -787 1 -821 19 -855 44 -81 88 -120 166 -147 27 -10 228 -13 843 -13 808 0 808 0 855 24 61 31 92 61 128 122 29 49 29 49 29 874 0 825 0 825 -27 875 -38 72 -101 125 -163 139 -56 12 -1593 12 -1646 0z m882 -179 c190 -67 208 -324 29 -416 -120 -61 -272 2 -315 131 -58 174 114 345 286 285z m-106 -514 c6 -1 10 -42 10 -104 0 -102 -5 -117 -37 -117 -14 0 -17 8 -16 36 1 25 -4 41 -16 50 -59 43 -153 -99 -163 -246 -7 -89 5 -108 53 -89 16 7 51 17 79 24 50 11 50 11 46 88 -3 73 -2 77 21 86 12 5 25 6 28 2 3 -3 4 -77 2 -163 -4 -157 -4 -157 -73 -156 -84 2 -117 -22 -126 -89 -4 -34 -1 -43 26 -71 32 -32 32 -32 194 -34 136 -3 162 -5 162 -18 0 -13 -26 -15 -166 -18 -187 -3 -203 -9 -203 -77 0 -69 16 -75 206 -75 156 0 169 -1 166 -18 -3 -15 -20 -17 -182 -17 -160 -1 -179 -2 -188 -18 -22 -41 3 -47 187 -47 224 0 244 8 245 91 0 56 -25 63 -200 61 -147 -2 -160 0 -170 17 -15 29 7 32 177 30 176 -3 193 4 193 71 0 73 -14 77 -267 79 -94 1 -103 3 -114 23 -24 45 50 65 103 27 36 -26 137 -23 186 6 95 56 80 162 -23 164 -17 1 -36 -4 -42 -10 -25 -25 -33 4 -33 121 0 121 6 139 37 121 15 -8 18 -24 18 -87 0 -78 0 -78 41 -85 22 -4 57 -14 77 -23 33 -13 38 -13 52 0 41 42 -15 258 -82 316 -51 44 -97 23 -91 -40 3 -23 -1 -27 -22 -27 -25 0 -25 0 -25 108 0 60 2 110 5 111 3 1 84 0 180 -3 193 -7 208 -11 283 -80 84 -79 82 -64 85 -524 3 -398 3 -409 -18 -441 -34 -56 -119 -58 -155 -2 -14 21 -16 68 -15 361 0 336 0 336 -42 333 -43 -3 -43 -3 -45 -383 -1 -380 -1 -380 -310 -383 -308 -2 -308 -2 -308 380 0 383 0 383 -43 383 -43 0 -43 0 -42 -328 0 -294 -1 -331 -17 -357 -33 -56 -117 -60 -156 -8 -18 25 -19 45 -18 419 2 416 4 438 50 499 50 68 98 102 172 124 28 8 254 13 324 7z" class=""></path>    <path d="M2290 2196 c0 -22 17 -28 24 -10 9 22 8 24 -9 24 -8 0 -15 -6 -15 -14z"></path> </g> </svg>