<svg version="1.0" xmlns="http://www.w3.org/2000/svg" width="123.000000pt" height="123.000000pt"
    viewBox="0 0 123.000000 123.000000" preserveAspectRatio="xMidYMid meet"
    style="width: 196.64px; height: auto;">
    <g transform="translate(0.000000,123.000000) scale(0.100000,-0.100000)" fill="#000000"
        stroke="none" class="">
        <path
            d="M480 1141 c-161 -52 -256 -164 -280 -330 -6 -41 -28 -118 -51 -174 -50 -124 -49 -141 9 -145 l42 -3 -6 -63 c-13 -122 45 -194 162 -204 l65 -5 -2 -59 -3 -59 117 -2 117 -2 0 28 c0 26 2 27 51 27 49 0 50 -1 47 -26 -3 -26 -1 -27 50 -30 l52 -3 0 173 0 173 41 43 c175 184 130 499 -88 627 -91 53 -221 67 -323 34z m200 -61 c14 -5 41 -11 61 -14 63 -11 184 -144 156 -173 -4 -3 -2 -15 4 -26 30 -56 -8 -160 -75 -207 -32 -21 -49 -43 -61 -75 -30 -76 -55 -63 -55 28 0 101 47 164 87 117 10 -11 21 -20 25 -20 14 0 8 23 -11 44 -28 32 -18 92 20 112 29 15 36 28 20 38 -5 3 -14 -1 -21 -9 -16 -19 -49 -19 -56 -1 -3 8 -19 20 -35 26 -33 14 -34 18 -14 46 8 12 11 24 8 28 -10 10 -43 -25 -43 -46 0 -10 -5 -18 -10 -18 -18 0 -60 48 -60 69 0 30 -19 35 -29 8 -13 -32 -53 -42 -92 -21 -36 18 -49 12 -26 -14 21 -22 21 -33 4 -57 -13 -17 -15 -17 -46 5 -23 18 -34 21 -42 13 -8 -8 -4 -15 16 -26 l28 -14 -29 -7 c-40 -10 -76 -35 -68 -47 4 -6 15 -4 30 5 13 9 37 16 55 16 29 0 88 45 100 76 7 19 86 26 93 8 10 -26 -4 -64 -24 -64 -28 0 -50 -11 -50 -24 0 -8 12 -11 33 -8 28 3 33 0 44 -27 6 -18 18 -31 28 -31 9 0 15 3 13 8 -2 4 -10 19 -17 34 -8 16 -11 38 -7 53 7 26 9 27 54 20 72 -10 126 -75 62 -75 -15 0 -33 -7 -40 -15 -11 -13 -7 -15 24 -15 46 0 45 -11 -1 -48 l-38 -30 -3 -91 c-4 -82 -6 -91 -23 -91 -17 0 -19 8 -19 70 0 132 -34 158 -203 154 -106 -3 -109 -2 -140 26 -47 42 -47 110 1 149 17 15 32 32 32 38 0 18 59 63 82 63 11 0 33 11 48 23 30 25 155 35 210 17z m-356 -336 c30 -30 13 -74 -29 -74 -27 0 -45 18 -45 45 0 42 44 59 74 29z m426 -249 c0 -23 -3 -25 -50 -25 -47 0 -50 2 -50 25 0 23 3 25 50 25 47 0 50 -2 50 -25z m-2 -72 c-3 -26 -7 -28 -50 -31 -47 -3 -48 -3 -48 27 0 30 1 31 51 31 49 0 50 -1 47 -27z m-20 -52 c17 -1 22 -7 22 -26 0 -23 -3 -25 -50 -25 -49 0 -50 1 -50 29 0 27 3 29 28 26 15 -2 37 -4 50 -4z m22 -96 c0 -23 -3 -25 -50 -25 -47 0 -50 2 -50 25 0 23 3 25 50 25 47 0 50 -2 50 -25z m-5 -74 c0 -21 -5 -24 -35 -26 -49 -2 -60 4 -60 32 0 23 3 24 48 21 42 -3 47 -5 47 -27z"
            class=""></path>
    </g>
</svg>