<svg version="1.0" xmlns="http://www.w3.org/2000/svg" width="135.000000pt" height="100.000000pt" viewBox="0 0 135.000000 100.000000" preserveAspectRatio="xMidYMid meet" style="width: 675px; height: auto;"> <g transform="translate(0.000000,100.000000) scale(0.100000,-0.100000)" fill="#000000" stroke="none" class="">     <path d="M274 894 c-52 -18 -74 -47 -74 -96 0 -31 -6 -45 -24 -59 -51 -40 -36 -133 27 -166 41 -21 125 -13 161 14 l26 21 115 -33 c133 -37 154 -32 116 29 l-21 34 22 14 c13 8 31 17 41 21 9 3 17 15 17 25 0 16 -18 24 -97 47 -120 33 -133 40 -133 66 0 26 -61 89 -86 90 -11 0 -26 2 -35 4 -8 1 -33 -3 -55 -11z m91 -46 c16 -7 29 -25 37 -51 14 -47 32 -59 121 -82 73 -20 77 -24 46 -43 -15 -10 -19 -20 -15 -38 8 -29 8 -29 -74 -4 -82 25 -111 25 -142 1 -54 -43 -130 -30 -144 25 -11 42 25 72 60 49 14 -9 33 -15 41 -11 24 9 17 34 -14 51 -88 45 -7 145 84 103z" class="" stroke-width="1"></path>      <path d="M782 789 c-18 -29 -16 -118 4 -126 22 -8 34 14 34 67 -1 57 -20 88 -38 59z" stroke-width="1"></path>      <path d="M860 611 c0 -23 19 -31 73 -31 50 0 72 12 64 34 -10 26 -137 23 -137 -3z" stroke-width="1" class=""></path>    <path d="M756 510 c-18 -39 -21 -40 -68 -40 -54 0 -63 -17 -30 -61 69 -91 84 -126 68 -158 -31 -58 -16 -125 34 -154 55 -33 161 -12 176 35 4 12 15 18 37 18 82 0 136 83 101 156 -19 40 -62 66 -111 66 -41 0 -47 6 -107 102 -55 87 -72 94 -100 36z m78 -88 c46 -76 62 -88 121 -95 99 -10 116 -111 23 -133 -28 -6 -33 0 -31 44 1 7 -2 11 -5 8 -3 -3 -11 -1 -18 5 -22 18 -35 0 -28 -36 8 -47 -2 -71 -37 -85 -37 -16 -98 8 -100 37 -2 34 3 57 17 77 21 31 18 46 -31 119 l-45 67 30 0 c21 0 34 8 46 25 21 32 17 34 58 -33z" class="" stroke-width="1"></path>   <path d="M337 473 c-10 -3 -17 -12 -15 -21 5 -28 138 -30 138 -2 0 15 -7 20 -27 21 -16 1 -39 2 -53 4 -14 1 -33 0 -43 -2z" class=""></path>   <path d="M513 393 c-9 -3 -13 -26 -13 -65 0 -56 1 -59 23 -56 20 3 22 8 22 62 0 58 -7 70 -32 59z" class=""></path>        </g> </svg>