<svg version="1.0" xmlns="http://www.w3.org/2000/svg" width="156.000000pt" height="97.000000pt" viewBox="0 0 156.000000 97.000000" preserveAspectRatio="xMidYMid meet" style="width: 608.4px; height: auto;"> <g transform="translate(0.000000,97.000000) scale(0.100000,-0.100000)" fill="#000000" stroke="none" class="">  <path d="M667 942 c-14 -15 -17 -42 -17 -149 0 -128 -1 -131 -25 -147 -13 -9 -26 -16 -27 -16 -2 0 -3 52 -3 116 0 110 -1 117 -24 135 -41 34 -81 25 -132 -28 -73 -77 -107 -126 -150 -219 -73 -155 -101 -370 -59 -461 44 -99 171 -119 281 -46 67 44 79 80 79 237 l0 135 55 31 c62 35 81 33 137 -13 27 -22 27 -22 30 -174 1 -84 5 -148 8 -142 4 5 12 -2 18 -15 27 -60 152 -116 228 -101 49 9 111 67 125 118 30 113 -34 366 -132 517 -118 182 -176 221 -230 152 -17 -23 -20 -40 -19 -127 1 -55 1 -103 1 -108 -1 -4 -12 0 -26 9 -25 16 -25 19 -25 149 0 115 -2 134 -18 148 -24 22 -55 21 -75 -1z" class=""></path>  </g> </svg>