<svg version="1.0" xmlns="http://www.w3.org/2000/svg" width="123.000000pt" height="116.000000pt" viewBox="0 0 123.000000 116.000000" preserveAspectRatio="xMidYMid meet" style="width: 479.7px; height: auto;"> <g transform="translate(0.000000,116.000000) scale(0.100000,-0.100000)" fill="#000000" stroke="none" class="">   <path d="M603 1060 c-252 -50 -257 -425 -7 -481 l55 -12 125 124 125 124 -5 43 c-17 133 -156 228 -293 202z m107 -145 l0 -45 46 0 45 0 -3 -52 -3 -53 -42 -3 -43 -3 0 -45 0 -45 -52 3 -53 3 -3 43 -3 42 -45 0 -44 0 0 55 0 55 45 0 45 0 0 45 0 45 55 0 55 0 0 -45z" class=""></path>  <path d="M990 853 c-8 -3 -100 -91 -203 -196 l-189 -189 43 -44 c24 -24 47 -43 50 -42 33 12 389 382 389 404 0 45 -50 82 -90 67z m30 -66 c0 -22 -159 -172 -170 -161 -7 7 15 36 72 92 84 82 98 93 98 69z"></path>  <path d="M552 427 l-22 -23 46 -47 c52 -54 54 -54 79 -27 19 21 18 22 -31 71 l-50 50 -22 -24z"></path> <path d="M374 209 c-145 -144 -151 -151 -127 -160 31 -12 95 -12 126 0 52 20 147 121 147 156 0 20 8 39 21 51 39 35 43 53 18 80 -12 13 -25 24 -28 24 -3 0 -74 -68 -157 -151z" class=""></path>   </g> </svg>