<?xml version="1.0" standalone="no"?>
<!DOCTYPE svg PUBLIC "-//W3C//DTD SVG 20010904//EN"
 "http://www.w3.org/TR/2001/REC-SVG-20010904/DTD/svg10.dtd">
<svg version="1.0" xmlns="http://www.w3.org/2000/svg"
 width="112.000000pt" height="112.000000pt" viewBox="0 0 112.000000 112.000000"
 preserveAspectRatio="xMidYMid meet">
<g transform="translate(0.000000,112.000000) scale(0.100000,-0.100000)"
fill="currentColor" stroke="none">
<path d="M380 908 c-43 -22 -45 -26 -50 -73 -3 -34 -10 -50 -20 -52 -83 -10
-90 -14 -110 -53 -26 -51 -25 -74 5 -114 31 -40 31 -42 0 -82 -30 -39 -31 -63
-5 -114 18 -35 25 -39 67 -46 56 -8 63 -15 63 -67 0 -31 5 -40 32 -57 59 -35
85 -36 129 0 l39 31 40 -31 c44 -35 70 -35 126 -1 26 16 32 27 38 70 6 49 8
51 39 51 52 0 80 21 100 74 l18 49 -31 38 c-16 21 -30 41 -30 44 0 4 14 24 30
45 17 21 30 41 30 45 0 3 -10 28 -21 55 -21 48 -23 50 -71 56 -53 7 -68 25
-68 80 0 17 -10 30 -32 44 -58 35 -84 35 -127 1 l-38 -30 -39 29 c-47 36 -57
36 -114 8z m92 -63 c34 -29 89 -33 108 -9 41 49 100 31 100 -30 0 -46 28 -74
81 -82 66 -10 78 -44 34 -96 -14 -16 -25 -39 -25 -50 0 -12 11 -36 25 -54 43
-57 32 -88 -35 -97 -55 -7 -80 -34 -80 -87 0 -30 -5 -39 -26 -49 -23 -10 -30
-8 -59 14 -38 29 -95 34 -115 9 -42 -50 -85 -36 -95 30 -9 55 -30 76 -85 83
-60 8 -72 39 -37 91 34 48 34 74 2 116 -42 55 -31 79 42 91 50 8 68 27 76 80
6 37 28 65 50 65 5 0 22 -11 39 -25z"/>
<path d="M464 721 c-62 -28 -89 -73 -89 -146 0 -75 28 -118 93 -147 55 -25
112 -18 159 18 44 34 63 73 63 132 0 118 -119 193 -226 143z m143 -76 c32 -32
35 -39 30 -78 -16 -116 -170 -133 -207 -23 -22 68 29 136 103 136 31 0 46 -7
74 -35z"/>
</g>
</svg>
