<svg version="1.0" xmlns="http://www.w3.org/2000/svg" width="127.000000pt" height="110.000000pt" viewBox="0 0 127.000000 110.000000" preserveAspectRatio="xMidYMid meet" style="width: 330px; height: auto;"> <g transform="translate(0.000000,110.000000) scale(0.100000,-0.100000)" fill="#000000" stroke="none"> <path d="M365 827 c-91 -51 -131 -179 -88 -278 21 -46 314 -402 336 -407 17 -4 314 350 338 402 41 90 15 205 -59 266 -72 59 -145 53 -225 -20 l-54 -49 -39 41 c-68 71 -137 86 -209 45z m141 -46 c18 -11 46 -38 65 -60 18 -23 38 -41 44 -41 7 0 29 20 50 45 61 75 118 92 185 56 42 -22 80 -90 80 -140 0 -20 -9 -54 -19 -76 -15 -33 -213 -278 -280 -348 -17 -17 -23 -11 -142 129 -156 185 -176 215 -185 270 -5 35 -1 53 17 91 42 84 119 115 185 74z" class=""></path> </g> </svg>