<?xml version="1.0" standalone="no"?>
<!DOCTYPE svg PUBLIC "-//W3C//DTD SVG 20010904//EN"
 "http://www.w3.org/TR/2001/REC-SVG-20010904/DTD/svg10.dtd">
<svg version="1.0" xmlns="http://www.w3.org/2000/svg"
 width="130.000000pt" height="142.000000pt" viewBox="0 0 130.000000 142.000000"
 preserveAspectRatio="xMidYMid meet">
<g transform="translate(0.000000,142.000000) scale(0.100000,-0.100000)"
fill="#000000" stroke="none">
<path d="M255 1066 c-24 -24 -25 -30 -25 -148 0 -172 -3 -168 154 -168 162 0
156 -6 156 172 0 114 -3 138 -17 149 -11 10 -52 15 -129 17 -110 4 -114 3
-139 -22z m235 -151 l0 -116 -102 3 -103 3 -3 99 c-1 55 0 106 2 113 4 10 32
13 106 13 l100 0 0 -115z"/>
<path d="M663 1080 c-38 -16 -45 -44 -41 -177 4 -157 -1 -153 159 -153 131 0
143 5 155 65 3 18 4 79 2 135 -4 135 -10 140 -152 139 -55 0 -111 -4 -123 -9z
m217 -165 l0 -116 -102 3 -103 3 -3 99 c-1 55 0 106 2 113 4 10 32 13 106 13
l100 0 0 -115z"/>
<path d="M246 638 c-12 -17 -16 -50 -16 -143 0 -169 -4 -165 159 -165 85 0
131 4 139 12 8 8 12 56 12 149 0 112 -3 141 -16 153 -12 13 -40 16 -139 16
-117 0 -125 -1 -139 -22z m244 -143 l0 -116 -102 3 -103 3 -3 99 c-1 55 0 106
2 113 4 10 32 13 106 13 l100 0 0 -115z"/>
<path d="M625 637 c-3 -12 -5 -54 -3 -92 3 -64 5 -70 26 -73 21 -3 22 -1 22
92 0 89 -1 96 -20 96 -12 0 -22 -9 -25 -23z"/>
<path d="M757 653 c-4 -3 -7 -66 -7 -139 l0 -133 -62 -3 c-55 -3 -63 -5 -63
-23 0 -18 8 -20 88 -23 l87 -3 0 106 0 105 64 0 c43 0 66 4 69 13 10 29 -6 37
-69 37 l-64 0 0 35 c0 27 -4 35 -18 35 -10 0 -22 -3 -25 -7z"/>
<path d="M887 443 c-13 -12 -7 -100 7 -112 31 -26 60 50 40 103 -6 16 -35 22
-47 9z"/>
</g>
</svg>
